<svg xmlns="http://www.w3.org/2000/svg" width="18" height="18" viewBox="0 0 18 18" fill="none">
  <g opacity="0.75" clip-path="url(#clip0_373_1363)">
    <path d="M13.6761 5.88452C13.6761 7.60766 13.0478 9.50475 12.0982 10.967C11.1304 12.4572 9.93421 13.3459 8.86853 13.3459C7.80285 13.3459 6.60668 12.4572 5.63887 10.967C4.68924 9.50475 4.06091 7.60766 4.06091 5.88452C4.06091 4.16633 4.61394 2.98459 5.45091 2.22745C6.29637 1.46262 7.49169 1.0769 8.86853 1.0769C10.2454 1.0769 11.4407 1.46262 12.2862 2.22745C13.1231 2.98459 13.6761 4.16633 13.6761 5.88452Z" stroke="#00A2DD"/>
    <path d="M15.0031 6.48164C15.0031 6.59379 14.9393 6.7716 14.6629 7.00029C14.3897 7.22635 13.9644 7.45229 13.3947 7.65168C12.2599 8.04884 10.6597 8.30373 8.86853 8.30373C7.07735 8.30373 5.47714 8.04884 4.34239 7.65168C3.77271 7.45229 3.34733 7.22635 3.07414 7.00029C2.79778 6.7716 2.73401 6.59379 2.73401 6.48164C2.73401 6.36949 2.79778 6.19169 3.07414 5.963C3.34733 5.73694 3.77271 5.511 4.34239 5.31161C5.47714 4.91445 7.07735 4.65956 8.86853 4.65956C10.6597 4.65956 12.2599 4.91445 13.3947 5.31161C13.9644 5.511 14.3897 5.73694 14.6629 5.963C14.9393 6.19169 15.0031 6.36949 15.0031 6.48164Z" stroke="url(#paint0_linear_373_1363)"/>
    <path fill-rule="evenodd" clip-rule="evenodd" d="M8.86853 14.5094C8.61204 14.5094 8.40411 14.3015 8.40411 14.045V-0.285583C8.40411 -0.542074 8.61204 -0.75 8.86853 -0.75C9.12502 -0.75 9.33295 -0.542074 9.33295 -0.285583L9.33295 14.045C9.33295 14.3015 9.12502 14.5094 8.86853 14.5094Z" fill="url(#paint1_linear_373_1363)"/>
    <path fill-rule="evenodd" clip-rule="evenodd" d="M2.08733 14.6745L8.68462 16.5898C8.87371 16.6447 9.07435 16.6459 9.2641 16.5933L15.6612 14.8204L9.06392 12.905C8.87482 12.8501 8.67419 12.8489 8.48444 12.9015L2.08733 14.6745ZM0.487203 14.1541C-0.028197 14.2969 -0.0326422 15.0262 0.480978 15.1753L8.42565 17.4818C8.7802 17.5847 9.15639 17.587 9.51217 17.4884L17.2613 15.3408C17.7767 15.1979 17.7812 14.4687 17.2676 14.3196L9.32288 12.013C8.96834 11.9101 8.59214 11.9078 8.23637 12.0064L0.487203 14.1541Z" fill="url(#paint2_linear_373_1363)"/>
  </g>
  <defs>
    <linearGradient id="paint0_linear_373_1363" x1="8.99997" y1="7.875" x2="9.20026" y2="2.68889" gradientUnits="userSpaceOnUse">
      <stop stop-color="#00A2DD"/>
      <stop offset="1" stop-color="#11BBF5" stop-opacity="0"/>
    </linearGradient>
    <linearGradient id="paint1_linear_373_1363" x1="8.64528" y1="0.061781" x2="8.64528" y2="15.0103" gradientUnits="userSpaceOnUse">
      <stop stop-color="#00A2DD" stop-opacity="0.06"/>
      <stop offset="0.125999" stop-color="#00A2DD"/>
      <stop offset="0.273016" stop-color="#00A2DD" stop-opacity="0.81"/>
      <stop offset="0.571875" stop-color="#00A2DD" stop-opacity="0.579788"/>
      <stop offset="1" stop-color="#11BBF5" stop-opacity="0.25"/>
    </linearGradient>
    <linearGradient id="paint2_linear_373_1363" x1="8.70259" y1="16.168" x2="8.70259" y2="12.1873" gradientUnits="userSpaceOnUse">
      <stop stop-color="#00A2DD"/>
      <stop offset="1" stop-color="#00A2DD" stop-opacity="0.3"/>
    </linearGradient>
    <clipPath id="clip0_373_1363">
      <rect width="18" height="18" fill="white"/>
    </clipPath>
  </defs>
</svg>