<svg width="30" height="30" viewBox="0 0 30 30" fill="none" xmlns="http://www.w3.org/2000/svg">
<g filter="url(#filter0_d_40_4894)">
<path fill-rule="evenodd" clip-rule="evenodd" d="M15 24C21.0751 24 26 19.0751 26 13C26 6.92487 21.0751 2 15 2C8.92487 2 4 6.92487 4 13C4 19.0751 8.92487 24 15 24ZM19.5267 14.6104C19.6522 14.6487 19.7689 14.7114 19.8701 14.7949C20.0744 14.9633 20.2034 15.2059 20.2289 15.4695C20.2544 15.733 20.1742 15.9959 20.006 16.2003C18.7803 17.6886 16.9574 18.5676 14.9926 18.5676C14.0358 18.5685 13.0906 18.3575 12.225 17.9497C11.3594 17.542 10.5949 16.9476 9.98622 16.2093C9.81747 16.005 9.73676 15.7421 9.76187 15.4784C9.78697 15.2146 9.91582 14.9716 10.1201 14.8029C10.3243 14.6341 10.5872 14.5534 10.851 14.5785C11.1148 14.6036 11.3577 14.7325 11.5265 14.9367C12.3755 15.9646 13.6341 16.5699 14.9926 16.5699C15.6564 16.5707 16.3122 16.4241 16.9125 16.1406C17.5127 15.8572 18.0426 15.4439 18.4637 14.9307C18.5471 14.8294 18.6497 14.7456 18.7655 14.6839C18.8813 14.6223 19.0082 14.584 19.1388 14.5714C19.2694 14.5588 19.4012 14.572 19.5267 14.6104ZM10.7945 9.10208C10.9818 8.91476 11.2359 8.80952 11.5008 8.80952C11.7657 8.80952 12.0198 8.91476 12.2071 9.10208C12.3944 9.28941 12.4997 9.54348 12.4997 9.8084V11.3067C12.4996 11.5716 12.3944 11.8256 12.2071 12.0129C12.0197 12.2002 11.7657 12.3054 11.5008 12.3054C11.2359 12.3054 10.9819 12.2002 10.7945 12.0129C10.6072 11.8256 10.502 11.5716 10.5019 11.3067V9.8084C10.5019 9.54348 10.6072 9.28941 10.7945 9.10208ZM17.7866 9.10208C17.974 8.91476 18.228 8.80952 18.493 8.80952C18.7579 8.80952 19.0119 8.91476 19.1993 9.10208C19.3866 9.28941 19.4918 9.54348 19.4918 9.8084V11.3067C19.4918 11.5716 19.3865 11.8256 19.1992 12.0129C19.0119 12.2002 18.7578 12.3054 18.493 12.3054C18.2281 12.3054 17.974 12.2002 17.7867 12.0129C17.5994 11.8256 17.4941 11.5716 17.4941 11.3067V9.8084C17.4941 9.54348 17.5993 9.28941 17.7866 9.10208Z" fill="white" fill-opacity="0.7" shape-rendering="crispEdges"/>
</g>
<defs>
<filter id="filter0_d_40_4894" x="0" y="0" width="30" height="30" filterUnits="userSpaceOnUse" color-interpolation-filters="sRGB">
<feFlood flood-opacity="0" result="BackgroundImageFix"/>
<feColorMatrix in="SourceAlpha" type="matrix" values="0 0 0 0 0 0 0 0 0 0 0 0 0 0 0 0 0 0 127 0" result="hardAlpha"/>
<feOffset dy="2"/>
<feGaussianBlur stdDeviation="2"/>
<feComposite in2="hardAlpha" operator="out"/>
<feColorMatrix type="matrix" values="0 0 0 0 0 0 0 0 0 0 0 0 0 0 0 0 0 0 0.1 0"/>
<feBlend mode="normal" in2="BackgroundImageFix" result="effect1_dropShadow_40_4894"/>
<feBlend mode="normal" in="SourceGraphic" in2="effect1_dropShadow_40_4894" result="shape"/>
</filter>
</defs>
</svg>
