<svg width="28" height="28" viewBox="0 0 28 28" fill="none" xmlns="http://www.w3.org/2000/svg">
<g filter="url(#filter0_d_40_4900)">
<path fill-rule="evenodd" clip-rule="evenodd" d="M8 2C5.79086 2 4 3.79086 4 6V18C4 20.2091 5.79086 22 8 22H20C22.2091 22 24 20.2091 24 18V6C24 3.79086 22.2091 2 20 2H8ZM19.2194 8.66946C19.6868 8.19959 19.6868 7.43779 19.2194 6.96793C18.752 6.49807 17.9942 6.49807 17.5268 6.96794L8.90251 15.638C8.43512 16.1079 8.43513 16.8697 8.90252 17.3395C9.36991 17.8094 10.1277 17.8094 10.5951 17.3395L19.2194 8.66946ZM13.8074 8.18987C14.2748 7.72001 14.2748 6.95821 13.8074 6.48834C13.34 6.01848 12.5822 6.01848 12.1148 6.48834L8.05488 10.5698C7.58749 11.0396 7.58749 11.8014 8.05488 12.2713C8.52227 12.7412 9.28006 12.7412 9.74745 12.2713L13.8074 8.18987ZM19.6965 12.4087C20.1639 12.8786 20.1639 13.6404 19.6965 14.1102L15.6366 18.1916C15.1692 18.6615 14.4114 18.6615 13.944 18.1916C13.4766 17.7218 13.4766 16.96 13.944 16.4901L18.004 12.4087C18.4713 11.9388 19.2291 11.9388 19.6965 12.4087Z" fill="white" fill-opacity="0.7" shape-rendering="crispEdges"/>
</g>
<defs>
<filter id="filter0_d_40_4900" x="0" y="0" width="28" height="28" filterUnits="userSpaceOnUse" color-interpolation-filters="sRGB">
<feFlood flood-opacity="0" result="BackgroundImageFix"/>
<feColorMatrix in="SourceAlpha" type="matrix" values="0 0 0 0 0 0 0 0 0 0 0 0 0 0 0 0 0 0 127 0" result="hardAlpha"/>
<feOffset dy="2"/>
<feGaussianBlur stdDeviation="2"/>
<feComposite in2="hardAlpha" operator="out"/>
<feColorMatrix type="matrix" values="0 0 0 0 0 0 0 0 0 0 0 0 0 0 0 0 0 0 0.1 0"/>
<feBlend mode="normal" in2="BackgroundImageFix" result="effect1_dropShadow_40_4900"/>
<feBlend mode="normal" in="SourceGraphic" in2="effect1_dropShadow_40_4900" result="shape"/>
</filter>
</defs>
</svg>
