<svg width="28" height="28" viewBox="0 0 28 28" fill="none" xmlns="http://www.w3.org/2000/svg">
<g filter="url(#filter0_d_40_6254)">
<path d="M5.57241 4.50984C6.3053 4.24809 7.10374 4.73275 7.32658 5.4784C7.5278 6.1517 7.8381 6.9248 8.3 7.5C9.23384 8.57701 10.4154 8.90644 10.751 8.98139C10.8128 8.99518 10.8738 9.00785 10.9356 9.02156C11.2456 9.09033 12.328 9.3 14 9.3C15.6678 9.3 16.613 9.09138 16.881 9.02208C16.9349 9.00815 16.9883 8.99463 17.0429 8.98392C18.1657 8.76365 19.2788 9.40257 19.6967 10.4678C20.2044 11.762 20.9047 13.4071 21.5 14.3C22.0919 15.1879 22.9385 16.2165 23.5815 16.9635C24.0866 17.5502 24.0675 18.4325 23.52 18.9799C22.9567 19.5433 22.0443 19.5424 21.5026 18.9582C21.0121 18.4292 20.42 17.7653 19.9179 17.1293C18.8359 15.7585 18 14.5 18 14.5L18 17.1293V24.4135C18 25.2897 17.2897 26 16.4135 26C15.5372 26 14.8269 25.2897 14.8269 24.4135V19.3332C14.8269 18.7756 14.3749 18.3236 13.8173 18.3236C13.3659 18.3236 13 18.6896 13 19.141V24.4794C13 25.3192 12.3191 26 11.4793 26C10.6475 26 9.97011 25.3317 9.95887 24.4999L9.85921 17.1293L9.49938 13.5461L9.47538 13.3399C9.38115 12.5301 8.7971 11.8532 8.10156 11.4279C7.47802 11.0466 6.70384 10.4385 6 9.5C5.2272 8.46961 4.77291 7.3065 4.51406 6.42092C4.27489 5.6027 4.76961 4.79655 5.57241 4.50984Z" fill="white" fill-opacity="0.7"/>
<circle cx="13.8174" cy="4.93048" r="2.87863" fill="white" fill-opacity="0.7"/>
<path d="M1.65841 17.8777C1.47607 17.8169 1.47607 17.559 1.65841 17.4982L3.44603 16.9023L4.03948 14.8256C4.09475 14.6322 4.36885 14.6322 4.42409 14.8256L5.01729 16.9023L6.80505 17.4982C6.98739 17.559 6.98739 17.8169 6.80505 17.8777L5.01729 18.4736L4.42576 20.84C4.37527 21.042 4.08821 21.042 4.0377 20.84L3.44603 18.4736L1.65841 17.8777Z" fill="white" fill-opacity="0.7"/>
<path d="M20.741 5.46274C20.4675 5.37157 20.4675 4.9847 20.741 4.89353L22.6725 4.24968L23.3127 2.00961C23.3956 1.7195 23.8067 1.71952 23.8896 2.00964L24.5294 4.24968L26.4611 4.89353C26.7346 4.98469 26.7346 5.37157 26.4611 5.46274L24.5294 6.10659L23.8921 8.65623C23.8164 8.95922 23.3858 8.95923 23.31 8.65625L22.6725 6.10659L20.741 5.46274Z" fill="white" fill-opacity="0.7"/>
</g>
<defs>
<filter id="filter0_d_40_6254" x="-2.47833" y="-0.207947" width="33.1445" height="32.2079" filterUnits="userSpaceOnUse" color-interpolation-filters="sRGB">
<feFlood flood-opacity="0" result="BackgroundImageFix"/>
<feColorMatrix in="SourceAlpha" type="matrix" values="0 0 0 0 0 0 0 0 0 0 0 0 0 0 0 0 0 0 127 0" result="hardAlpha"/>
<feOffset dy="2"/>
<feGaussianBlur stdDeviation="2"/>
<feComposite in2="hardAlpha" operator="out"/>
<feColorMatrix type="matrix" values="0 0 0 0 0 0 0 0 0 0 0 0 0 0 0 0 0 0 0.1 0"/>
<feBlend mode="normal" in2="BackgroundImageFix" result="effect1_dropShadow_40_6254"/>
<feBlend mode="normal" in="SourceGraphic" in2="effect1_dropShadow_40_6254" result="shape"/>
</filter>
</defs>
</svg>
