<svg width="24" height="25" viewBox="0 0 24 25" fill="none" xmlns="http://www.w3.org/2000/svg">
<g clip-path="url(#clip0_494_2199)">
<g filter="url(#filter0_d_494_2199)">
<path d="M21.9352 15.1709L21.2711 14.7851C20.9515 14.5978 20.7723 14.2395 20.8219 13.8675C20.8826 13.4515 20.9129 13.0299 20.9129 12.5945C20.9129 12.1591 20.8798 11.7375 20.8219 11.3214C20.7723 10.9495 20.9459 10.594 21.3593 10.3543L21.9379 10.0208C22.3237 9.80041 22.4918 9.33748 22.3457 8.9214C22.1473 8.35376 21.8966 7.80817 21.6073 7.28463C21.5384 7.15512 21.4612 7.02285 21.3813 6.8961C21.0755 6.38633 20.7255 5.90687 20.3397 5.45772C20.0504 5.11879 19.5654 5.04164 19.097 5.31168L18.5101 5.65061C18.1904 5.83798 17.7854 5.81043 17.4933 5.58172C16.8292 5.05542 16.0907 4.6228 15.2889 4.30316C14.9444 4.16539 14.724 3.82646 14.724 3.45998V2.68568C14.724 2.24204 14.4071 1.86178 13.9717 1.77911C13.3214 1.66063 12.6574 1.60001 11.974 1.60001C11.2906 1.60001 10.6266 1.66063 9.97625 1.77911C9.54088 1.86178 9.224 2.24204 9.224 2.68568V3.45998C9.224 3.82646 9.00356 4.16539 8.65912 4.30316C7.85726 4.6228 7.11879 5.05542 6.45471 5.58172C6.16262 5.81043 5.75756 5.83798 5.43792 5.65061L4.76834 5.26208C4.38256 5.04164 3.89759 5.11879 3.60826 5.46048C3.22249 5.90963 2.8753 6.39184 2.56668 6.89885C2.48953 7.02836 2.40962 7.16063 2.34073 7.28738C2.0514 7.81093 1.80065 8.35652 1.60225 8.92415C1.45621 9.34024 1.6243 9.80316 2.01007 10.0236L2.67415 10.4094C2.99379 10.5968 3.17289 10.955 3.12329 11.327C3.06267 11.743 3.03236 12.1646 3.03236 12.6C3.03236 13.0354 3.06543 13.457 3.12329 13.8731C3.17289 14.245 2.99379 14.6005 2.67415 14.7906L2.01007 15.1764C1.6243 15.3968 1.45621 15.8598 1.60225 16.2759C1.80065 16.8435 2.0514 17.3891 2.34073 17.9126C2.40962 18.0421 2.48677 18.1744 2.56668 18.3012C2.87254 18.8109 3.22249 19.2904 3.60826 19.7395C3.89759 20.0785 4.38256 20.1556 4.76834 19.9379L5.43792 19.5494C5.75756 19.362 6.16262 19.3896 6.45471 19.6183C7.11879 20.1446 7.85726 20.5772 8.65912 20.8969C9.00356 21.0346 9.224 21.3736 9.224 21.74V22.5143C9.224 22.958 9.54088 23.3382 9.97625 23.4209C10.6266 23.5394 11.2906 23.6 11.974 23.6C12.6574 23.6 13.3214 23.5394 13.9717 23.4209C14.4071 23.3382 14.724 22.958 14.724 22.5143V21.74C14.724 21.3736 14.9444 21.0346 15.2889 20.8969C16.0907 20.5772 16.8292 20.1446 17.4933 19.6183C17.7854 19.3896 18.1904 19.362 18.5101 19.5494L19.1797 19.9379C19.5654 20.1584 20.0504 20.0812 20.3397 19.7395C20.7255 19.2904 21.0727 18.8082 21.3813 18.3012C21.4585 18.1716 21.5384 18.0394 21.6073 17.9126C21.8966 17.3891 22.1473 16.8435 22.3457 16.2759C22.489 15.8543 22.3209 15.3913 21.9352 15.1709ZM11.974 16.7195C9.69519 16.7195 7.849 14.8733 7.849 12.5945C7.849 10.3157 9.69519 8.4695 11.974 8.4695C14.2528 8.4695 16.099 10.3157 16.099 12.5945C16.099 14.8733 14.2528 16.7195 11.974 16.7195Z" fill="white"/>
</g>
</g>
<defs>
<filter id="filter0_d_494_2199" x="-2.44995" y="-0.399994" width="28.8479" height="30" filterUnits="userSpaceOnUse" color-interpolation-filters="sRGB">
<feFlood flood-opacity="0" result="BackgroundImageFix"/>
<feColorMatrix in="SourceAlpha" type="matrix" values="0 0 0 0 0 0 0 0 0 0 0 0 0 0 0 0 0 0 127 0" result="hardAlpha"/>
<feOffset dy="2"/>
<feGaussianBlur stdDeviation="2"/>
<feComposite in2="hardAlpha" operator="out"/>
<feColorMatrix type="matrix" values="0 0 0 0 0 0 0 0 0 0 0 0 0 0 0 0 0 0 0.1 0"/>
<feBlend mode="normal" in2="BackgroundImageFix" result="effect1_dropShadow_494_2199"/>
<feBlend mode="normal" in="SourceGraphic" in2="effect1_dropShadow_494_2199" result="shape"/>
</filter>
<clipPath id="clip0_494_2199">
<rect width="24" height="24" fill="white" transform="translate(0 0.600006)"/>
</clipPath>
</defs>
</svg>
