<svg width="31" height="32" viewBox="0 0 31 32" fill="none" xmlns="http://www.w3.org/2000/svg">
<g filter="url(#filter0_d_40_5061)">
<path fill-rule="evenodd" clip-rule="evenodd" d="M14.4095 3.48707C14.4095 2.66578 15.0753 2 15.8965 2C16.7178 2 17.3836 2.66578 17.3836 3.48707V4.51293C17.3836 5.33422 16.7178 6 15.8965 6C15.0753 6 14.4095 5.33422 14.4095 4.51293V3.48707ZM16 20.7C19.5899 20.7 22.5 17.7899 22.5 14.2C22.5 10.6101 19.5899 7.7 16 7.7C12.4101 7.7 9.5 10.6101 9.5 14.2C9.5 17.7899 12.4101 20.7 16 20.7ZM26.863 12.812C26.7601 12.1574 26.1506 11.711 25.5017 11.8148C24.8528 11.9186 24.4102 12.5334 24.5131 13.188C24.5838 13.6379 24.6207 14.0999 24.6207 14.5714C24.6207 19.4052 20.7359 23.3238 15.9438 23.3238C15.6344 23.3238 15.3292 23.3075 15.029 23.2758C14.3755 23.2069 13.7903 23.6853 13.722 24.3445C13.6536 25.0036 14.1279 25.5938 14.7814 25.6628C15.1638 25.7031 15.5516 25.7238 15.9438 25.7238C22.05 25.7238 27 20.7307 27 14.5714C27 13.9735 26.9532 13.3858 26.863 12.812ZM22.2057 5.51479C22.7864 4.929 23.728 4.929 24.3087 5.51479C24.8894 6.10057 24.8894 7.05032 24.3087 7.63611L23.6077 8.34321C23.0269 8.929 22.0854 8.929 21.5046 8.34321C20.9239 7.75743 20.9239 6.80768 21.5046 6.22189L22.2057 5.51479ZM8.18545 19.6569C8.76619 19.0711 9.70774 19.0711 10.2885 19.6569C10.8692 20.2427 10.8692 21.1924 10.2885 21.7782L9.58747 22.4853C9.00673 23.0711 8.06518 23.0711 7.48444 22.4853C6.9037 21.8995 6.9037 20.9498 7.48444 20.364L8.18545 19.6569ZM6.46551 12.5C7.29394 12.5 7.96551 13.1716 7.96551 14C7.96551 14.8284 7.29394 15.5 6.46551 15.5H5.5C4.67157 15.5 4 14.8284 4 14C4 13.1716 4.67157 12.5 5.5 12.5H6.46551ZM10.0587 8.58482C10.6146 7.97504 10.5749 7.0258 9.96992 6.46463L9.24177 5.78919C8.63681 5.22802 7.69572 5.26743 7.13979 5.87722C6.58386 6.487 6.62361 7.43624 7.22858 7.99741L7.95672 8.67285C8.56168 9.23402 9.50277 9.19461 10.0587 8.58482Z" fill="white" fill-opacity="0.7" shape-rendering="crispEdges"/>
</g>
<defs>
<filter id="filter0_d_40_5061" x="0" y="0" width="31" height="31.7238" filterUnits="userSpaceOnUse" color-interpolation-filters="sRGB">
<feFlood flood-opacity="0" result="BackgroundImageFix"/>
<feColorMatrix in="SourceAlpha" type="matrix" values="0 0 0 0 0 0 0 0 0 0 0 0 0 0 0 0 0 0 127 0" result="hardAlpha"/>
<feOffset dy="2"/>
<feGaussianBlur stdDeviation="2"/>
<feComposite in2="hardAlpha" operator="out"/>
<feColorMatrix type="matrix" values="0 0 0 0 0 0 0 0 0 0 0 0 0 0 0 0 0 0 0.1 0"/>
<feBlend mode="normal" in2="BackgroundImageFix" result="effect1_dropShadow_40_5061"/>
<feBlend mode="normal" in="SourceGraphic" in2="effect1_dropShadow_40_5061" result="shape"/>
</filter>
</defs>
</svg>
