<svg width="126" height="15" viewBox="0 0 126 15" fill="none" xmlns="http://www.w3.org/2000/svg">
<path fill-rule="evenodd" clip-rule="evenodd" d="M2.32877 4.54454V14.1507H0V3.08906V0.178101L9.31507 6.00002V0.178101H11.6438V14.1507H9.31507V8.91098L2.32877 4.54454Z" fill="white"/>
<path fill-rule="evenodd" clip-rule="evenodd" d="M115.166 2.29089L115.274 2.50687V14.1507H114.11V1.63358V0.178101L124.589 6.69865V0.178101H125.753V14.1507H124.589V8.15413L115.166 2.29089Z" fill="white"/>
<path fill-rule="evenodd" clip-rule="evenodd" d="M13.9726 1.1781C13.9726 0.625816 14.4203 0.178101 14.9726 0.178101H25.6164V2.50687H16.3014V6.00002H25.6164V8.32879H16.3014V11.8219H25.6164V14.1507H14.9726C14.4203 14.1507 13.9726 13.703 13.9726 13.1507V1.1781Z" fill="white"/>
<path fill-rule="evenodd" clip-rule="evenodd" d="M46.5753 0.178101H41.9178V2.50687H46.5753V14.1507H48.9041V2.50687H53.5616V0.178101H48.9041H46.5753Z" fill="white"/>
<path fill-rule="evenodd" clip-rule="evenodd" d="M55.8904 0.178101H57.0548V6.58221H66.3698V0.178101H67.5342V6.58221V7.74659V14.1507H66.3698V7.74659H57.0548V14.1507H55.8904V7.74659V6.58221V0.178101Z" fill="white"/>
<path fill-rule="evenodd" clip-rule="evenodd" d="M112.945 14.1507L106.541 0.178101H105.377L98.9726 14.1507H100.137L102.272 9.49317H109.646L111.781 14.1507H112.945ZM109.112 8.32878L105.959 1.44834L102.805 8.32878H109.112Z" fill="white"/>
<path fill-rule="evenodd" clip-rule="evenodd" d="M71.0274 0.178101H69.863V13.1507C69.863 13.703 70.3107 14.1507 70.863 14.1507H80.5068C81.0591 14.1507 81.5068 13.703 81.5068 13.1507V0.178101H80.3424V12.9863H71.0274V0.178101Z" fill="white"/>
<path fill-rule="evenodd" clip-rule="evenodd" d="M83.8356 1.63358V0.178101L90.8219 4.25344L97.8082 0.178101V1.63358V14.1507H96.6438V2.3128L91.3257 5.415C91.0144 5.59663 90.6294 5.59663 90.318 5.415L85 2.3128V14.1507H83.8356V1.63358Z" fill="white"/>
<path fill-rule="evenodd" clip-rule="evenodd" d="M29.6918 0.178101H26.7808L32.3116 7.1644L26.7808 14.1507H29.6918L33.7671 9.0029L37.8425 14.1507H40.7534L35.2226 7.1644L40.7534 0.178101H37.8425L33.7671 5.3259L29.6918 0.178101Z" fill="white"/>
</svg>
