<svg width="24" height="24" viewBox="0 0 24 24" fill="none" xmlns="http://www.w3.org/2000/svg">
<rect x="5.14307" y="11.1428" width="6" height="1.71429" rx="0.857143" fill="#B6BDCA"/>
<mask id="path-2-inside-1_4601_11440" fill="white">
<path d="M22.7144 12C22.7138 11.8154 22.6621 11.6345 22.565 11.4774C22.468 11.3203 22.3293 11.1931 22.1644 11.11L4.45007 3.11003C4.29784 3.03332 4.12853 2.99679 3.95821 3.00393C3.7879 3.01106 3.62223 3.06162 3.47695 3.15079C3.33167 3.23996 3.2116 3.36479 3.12813 3.51343C3.04467 3.66206 3.00059 3.82956 3.00007 4.00003V10.28C2.99136 10.4871 3.04355 10.6922 3.15019 10.87C3.25683 11.0477 3.41324 11.1903 3.60007 11.28L5.14007 12L3.59007 12.77C3.40592 12.8622 3.25229 13.0057 3.14764 13.183C3.04298 13.3604 2.99174 13.5642 3.00007 13.77V20C3.00142 20.1691 3.04563 20.3351 3.12856 20.4825C3.2115 20.6299 3.33045 20.7538 3.47429 20.8427C3.61814 20.9316 3.78218 20.9826 3.95108 20.9908C4.11998 20.9991 4.28822 20.9644 4.44007 20.89L22.1544 12.89C22.3211 12.8083 22.4619 12.6818 22.5608 12.5246C22.6597 12.3674 22.7129 12.1857 22.7144 12Z"/>
</mask>
<path d="M22.7144 12L24.7143 12.0161L24.7144 12.005L24.7143 11.994L22.7144 12ZM22.1644 11.11L23.0643 9.32396L23.0263 9.30481L22.9875 9.28728L22.1644 11.11ZM4.45007 3.11003L3.55006 4.89608L3.58809 4.91524L3.6269 4.93277L4.45007 3.11003ZM3.00007 4.00003L1.00007 3.99397V4.00003L3.00007 4.00003ZM3.00007 10.28L4.9983 10.3641L5.00007 10.3221V10.28H3.00007ZM3.15019 10.87L1.4352 11.8989L3.15019 10.87ZM3.60007 11.28L2.73391 13.0827L2.74344 13.0873L2.75301 13.0918L3.60007 11.28ZM5.14007 12L6.02987 13.7912L9.74543 11.9454L5.98713 10.1883L5.14007 12ZM3.59007 12.77L2.70026 10.9789L2.69451 10.9817L3.59007 12.77ZM3.00007 13.77H5.00007V13.7296L4.99843 13.6892L3.00007 13.77ZM3.00007 20H1.00007V20.008L1.00013 20.016L3.00007 20ZM4.44007 20.89L3.6169 19.0673L3.58824 19.0802L3.56001 19.0941L4.44007 20.89ZM22.1544 12.89L22.9775 14.7128L23.0061 14.6999L23.0343 14.6861L22.1544 12.89ZM24.7143 11.994C24.7127 11.44 24.5576 10.8972 24.2664 10.426L20.8637 12.5288C20.7666 12.3717 20.7149 12.1908 20.7144 12.0061L24.7143 11.994ZM24.2664 10.426C23.9751 9.95469 23.5591 9.57326 23.0643 9.32396L21.2644 12.8961C21.0995 12.813 20.9608 12.6858 20.8637 12.5288L24.2664 10.426ZM22.9875 9.28728L5.27324 1.28728L3.6269 4.93277L21.3412 12.9328L22.9875 9.28728ZM5.35008 1.32397C4.89339 1.09384 4.38545 0.984277 3.87451 1.00568L4.04192 5.00218C3.8716 5.00931 3.70229 4.97279 3.55006 4.89608L5.35008 1.32397ZM3.87451 1.00568C3.36356 1.02708 2.86657 1.17875 2.43073 1.44626L4.52318 4.85532C4.3779 4.94449 4.21223 4.99504 4.04192 5.00218L3.87451 1.00568ZM2.43073 1.44626C1.99487 1.71378 1.63466 2.08828 1.38427 2.53417L4.872 4.49268C4.78854 4.6413 4.66847 4.76614 4.52318 4.85532L2.43073 1.44626ZM1.38427 2.53417C1.13388 2.98007 1.00163 3.48257 1.00008 3.99397L5.00006 4.00608C4.99954 4.17655 4.95546 4.34405 4.872 4.49268L1.38427 2.53417ZM1.00007 4.00003V10.28H5.00007V4.00003L1.00007 4.00003ZM1.00184 10.1959C0.976683 10.7938 1.12735 11.3859 1.4352 11.8989L4.86518 9.84096C4.95974 9.99857 5.00603 10.1805 4.9983 10.3641L1.00184 10.1959ZM1.4352 11.8989C1.74305 12.412 2.19457 12.8236 2.73391 13.0827L4.46622 9.47731C4.63191 9.55692 4.77061 9.68335 4.86518 9.84096L1.4352 11.8989ZM2.75301 13.0918L4.29301 13.8118L5.98713 10.1883L4.44713 9.46826L2.75301 13.0918ZM4.25027 10.2089L2.70027 10.9789L4.47987 14.5612L6.02987 13.7912L4.25027 10.2089ZM2.69451 10.9817C2.16615 11.2463 1.72537 11.6578 1.4251 12.1667L4.87017 14.1993C4.77921 14.3535 4.64569 14.4782 4.48563 14.5583L2.69451 10.9817ZM1.4251 12.1667C1.12482 12.6757 0.977812 13.2605 1.00171 13.8509L4.99843 13.6892C5.00567 13.868 4.96114 14.0452 4.87017 14.1993L1.4251 12.1667ZM1.00007 13.77V20H5.00007V13.77H1.00007ZM1.00013 20.016C1.00418 20.5233 1.13681 21.0213 1.38561 21.4634L4.87151 19.5016C4.95445 19.649 4.99866 19.815 5.00001 19.9841L1.00013 20.016ZM1.38561 21.4634C1.63442 21.9055 1.99127 22.2773 2.4228 22.544L4.52578 19.1414C4.66963 19.2303 4.78858 19.3542 4.87151 19.5016L1.38561 21.4634ZM2.4228 22.544C2.85434 22.8107 3.34647 22.9636 3.85316 22.9884L4.049 18.9932C4.2179 19.0015 4.38194 19.0525 4.52578 19.1414L2.4228 22.544ZM3.85316 22.9884C4.35988 23.0133 4.8646 22.9092 5.32013 22.686L3.56001 19.0941C3.71184 19.0197 3.88008 18.985 4.049 18.9932L3.85316 22.9884ZM5.26324 22.7128L22.9775 14.7128L21.3312 11.0673L3.6169 19.0673L5.26324 22.7128ZM23.0343 14.6861C23.5346 14.4409 23.9568 14.0613 24.2536 13.5897L20.868 11.4595C20.9669 11.3023 21.1076 11.1757 21.2744 11.094L23.0343 14.6861ZM24.2536 13.5897C24.5503 13.1181 24.7098 12.5732 24.7143 12.0161L20.7144 11.984C20.7159 11.7983 20.7691 11.6166 20.868 11.4595L24.2536 13.5897Z" fill="#B6BDCA" mask="url(#path-2-inside-1_4601_11440)"/>
</svg>
