<svg width="36" height="36" viewBox="0 0 36 36" fill="none" xmlns="http://www.w3.org/2000/svg">
  <path fill-rule="evenodd" clip-rule="evenodd"
    d="M18 0.5C8.33502 0.5 0.5 8.33502 0.5 18C0.5 27.665 8.33502 35.5 18 35.5C27.665 35.5 35.5 27.665 35.5 18C35.5 8.33502 27.665 0.5 18 0.5ZM17.0953 9.61612C17.2372 9.47425 17.4046 9.37361 17.5829 9.3142C17.7026 9.27428 17.8272 9.25297 17.9522 9.25029L17.9794 9.25C18.3314 9.25 18.6494 9.39551 18.8766 9.62966L26.1547 16.9078C26.6429 17.3959 26.6429 18.1874 26.1547 18.6756C25.6666 19.1637 24.8751 19.1637 24.3869 18.6756L19.2294 13.518V25.0833C19.2294 25.7737 18.6697 26.3333 17.9794 26.3333C17.289 26.3333 16.7294 25.7737 16.7294 25.0833V13.5176L11.5714 18.6756C11.0832 19.1637 10.2918 19.1637 9.80362 18.6756C9.31546 18.1874 9.31546 17.3959 9.80362 16.9078L17.0953 9.61612Z"
    fill="white" />
</svg>