<svg width="24" height="24" viewBox="0 0 24 24" fill="none" xmlns="http://www.w3.org/2000/svg">
<path d="M12.4174 15.278C15.0743 15.278 17.2357 13.1166 17.2357 10.4597V5.43211C17.2357 2.77524 15.0743 0.613831 12.4174 0.613831C9.76053 0.613831 7.59912 2.77547 7.59912 5.43211V10.4599C7.59912 13.1166 9.76076 15.278 12.4174 15.278ZM9.69396 5.43211C9.69063 5.07235 9.7586 4.7155 9.89397 4.38216C10.0293 4.04883 10.2294 3.74561 10.4826 3.49004C10.7358 3.23446 11.0372 3.03159 11.3692 2.89314C11.7013 2.75469 12.0575 2.68341 12.4173 2.68341C12.7771 2.68341 13.1333 2.75469 13.4653 2.89314C13.7974 3.03159 14.0987 3.23446 14.352 3.49004C14.6052 3.74561 14.8052 4.04883 14.9406 4.38216C15.076 4.7155 15.1439 5.07235 15.1406 5.43211V10.4599C15.1398 11.182 14.8526 11.8742 14.342 12.3848C13.8315 12.8954 13.1392 13.1826 12.4172 13.1834C11.6951 13.1826 11.0029 12.8954 10.4923 12.3848C9.98173 11.8742 9.69454 11.182 9.69373 10.4599L9.69396 5.43211Z" fill="black" fill-opacity="0.45"/>
<path d="M20.378 9.20294C20.1002 9.20294 19.8338 9.31329 19.6373 9.50972C19.4409 9.70615 19.3306 9.97257 19.3306 10.2504C19.3306 14.0622 16.2293 17.1644 12.4165 17.1644C8.60369 17.1644 5.50244 14.0632 5.50244 10.2504C5.50244 9.97257 5.39209 9.70615 5.19566 9.50972C4.99923 9.31329 4.73281 9.20294 4.45502 9.20294C4.17722 9.20294 3.91081 9.31329 3.71438 9.50972C3.51795 9.70615 3.40759 9.97257 3.40759 10.2504C3.4062 12.4589 4.21666 14.5908 5.6848 16.2407C7.15294 17.8905 9.17631 18.9432 11.37 19.1983V21.1436C11.37 21.4214 11.4804 21.6879 11.6768 21.8843C11.8732 22.0807 12.1396 22.1911 12.4174 22.1911C12.6952 22.1911 12.9616 22.0807 13.1581 21.8843C13.3545 21.6879 13.4649 21.4214 13.4649 21.1436V19.1983C15.6583 18.9429 17.6813 17.8901 19.1491 16.2403C20.6169 14.5904 21.427 12.4586 21.4254 10.2504C21.4254 9.97257 21.3151 9.70615 21.1186 9.50972C20.9222 9.31329 20.6558 9.20294 20.378 9.20294Z" fill="black" fill-opacity="0.45"/>
</svg>
